<?xml version="1.0" standalone="no"?>
<!DOCTYPE svg PUBLIC "-//W3C//DTD SVG 20010904//EN"
 "http://www.w3.org/TR/2001/REC-SVG-20010904/DTD/svg10.dtd">
<svg version="1.0" xmlns="http://www.w3.org/2000/svg"
 width="260.000000pt" height="260.000000pt" viewBox="0 0 260.000000 260.000000"
 preserveAspectRatio="xMidYMid meet">
<metadata>
Created by potrace 1.11, written by Peter Selinger 2001-2013
</metadata>
<g transform="translate(0.000000,260.000000) scale(0.100000,-0.100000)"
fill="#000000" stroke="none">
<path d="M1184 1903 c3 -6 45 -81 94 -165 49 -84 100 -173 114 -198 14 -25 81
-142 150 -260 69 -118 171 -296 228 -395 57 -99 107 -186 113 -193 7 -9 31 25
87 123 43 74 80 140 84 147 3 7 16 29 27 48 24 40 192 328 222 380 10 19 45
80 77 135 32 55 70 123 85 150 15 28 34 57 41 66 8 8 14 18 14 21 0 4 18 37
40 76 22 38 40 71 40 73 0 2 -320 4 -710 4 -544 0 -709 -3 -706 -12z"/>
<path d="M620 1744 c-113 -197 -82 -145 -368 -640 -127 -219 -233 -406 -236
-414 -6 -13 76 -15 701 -14 570 1 707 3 705 14 -1 7 -73 134 -159 284 -86 149
-179 309 -206 356 -26 47 -56 99 -66 115 -10 17 -31 53 -47 81 -141 249 -220
383 -224 383 -3 1 -48 -74 -100 -165z"/>
</g>
</svg>
